<svg width="40" height="30" viewBox="0 0 40 30" fill="none" xmlns="http://www.w3.org/2000/svg">
<path d="M40 29.0906H23.6242V20.2315C23.6242 15.9362 24.5638 12.0436 26.443 8.55369C28.3221 4.97427 31.0962 2.28971 34.7651 0.5L39.3289 3.8557C38.434 4.75056 37.5392 5.60067 36.6443 6.40604C35.8389 7.21141 34.9888 8.01678 34.094 8.82214C32.2148 10.9698 31.2752 13.2517 31.2752 15.6678H40V29.0906ZM16.3758 29.0906H0V20.2315C0 15.9362 0.939598 12.0436 2.81879 8.55369C4.69799 4.97427 7.47204 2.28971 11.1409 0.5L15.7047 3.8557C14.8993 4.75056 14.0492 5.60067 13.1544 6.40604C12.2595 7.21141 11.3647 8.01678 10.4698 8.82214C8.5906 11.1488 7.65101 13.4306 7.65101 15.6678H16.3758V29.0906Z" fill="#A4D5EB"/>
</svg>
